<svg width="19" height="18" viewBox="0 0 19 18" fill="none" xmlns="http://www.w3.org/2000/svg">
<path d="M18.426 8.095L1.42599 0.0950001C1.07599 -0.0679999 0.662992 -0.017 0.364992 0.228C0.0659916 0.473 -0.0630085 0.868 0.0299915 1.242L1.96899 9L0.0299915 16.758C-0.0640085 17.132 0.0659916 17.528 0.364992 17.773C0.547992 17.923 0.771992 18 0.999992 18C1.14499 18 1.28999 17.969 1.42599 17.905L18.426 9.905C18.776 9.74 19 9.388 19 9C19 8.612 18.776 8.26 18.426 8.095ZM2.48099 15.197L3.31999 11.84L8.99999 9L3.31999 6.16L2.48099 2.803L15.651 9L2.48099 15.197Z" fill="#484848"/>
</svg>
